:FULLY-SPECIFIED
:FORCE-ALL-JOINTS-BE-3DOF
:DEGREES
2956
root -5.89556 13.2637 -28.9236 162.026 -67.7272 -158.939
lfemur -67.7392 43.0055 -6.68015
ltibia 77.1759 0 0
lfoot -7.80899 -2.63235 0.0120864
ltoes -38.8488 0 0
rfemur -34.2029 -17.6021 22.8828
rtibia 90.4307 0 0
rfoot -40.4264 -30.1531 0.00617384
rtoes -13.7607 0 0
lowerback 16.2389 5.27513 1.37875
upperback -4.40723 7.58737 1.45275
thorax -14.1066 3.4562 -1.27515
lowerneck -2.88049 9.3001 1.54085
upperneck 8.12658 12.1796 1.69602
head 3.11977 6.13054 0.750755
lclavicle 9.23238e-15 9.44298e-15 6.90292e-32
lhumerus 5.95117 14.2725 82.8791
lradius 90.5912 0 0
lwrist -18.0157 0 0
lhand -38.663 28.6801 0.0111547
lfingers 7.12502 0 0
lthumb -11.6784 58.3244 0.0117498
rclavicle 9.23238e-15 9.44298e-15 6.90292e-32
rhumerus -55.7057 50.9651 -109.168
rradius 112.663 0 0
rwrist -81.6118 0 0
rhand 6.77456 -25.5029 0.0330067
rfingers 7.12502 0 0
rthumb 32.0565 -52.6444 0.0457709
2957
root -5.84181 13.3119 -28.9902 161.806 -68.0017 -158.677
lfemur -67.7088 42.7366 -6.72926
ltibia 76.8724 0 0
lfoot -7.79636 -2.50634 0.014899
ltoes -38.8091 0 0
rfemur -34.2276 -17.4756 22.9668
rtibia 90.2993 0 0
rfoot -40.3312 -30.147 0.00762474
rtoes -13.7441 0 0
lowerback 16.2352 5.2616 1.37556
upperback -4.38844 7.56677 1.44603
thorax -14.0823 3.44725 -1.27426
lowerneck -2.8618 9.21813 1.48216
upperneck 8.04893 12.0727 1.70899
head 3.09195 6.07715 0.763234
lclavicle 8.72193e-15 9.13756e-15 9.04259e-32
lhumerus 6.02607 14.165 82.8685
lradius 90.5233 0 0
lwrist -17.8801 0 0
lhand -38.5698 28.6883 0.0137788
lfingers 7.12502 0 0
lthumb -11.5884 58.3355 0.0145065
rclavicle 8.72193e-15 9.13756e-15 9.04259e-32
rhumerus -54.9397 50.9 -108.598
rradius 112.598 0 0
rwrist -81.4492 0 0
rhand 6.61261 -25.542 0.0406219
rfingers 7.12502 0 0
rthumb 31.9013 -52.7025 0.0563207
2958
root -5.78805 13.36 -29.0568 161.615 -68.2335 -158.451
lfemur -67.6824 42.5096 -6.77061
ltibia 76.6155 0 0
lfoot -7.7852 -2.40074 0.0172428
ltoes -38.7731 0 0
rfemur -34.2477 -17.3689 23.0378
rtibia 90.1877 0 0
rfoot -40.2508 -30.1414 0.00883996
rtoes -13.7297 0 0
lowerback 16.232 5.25029 1.37285
upperback -4.37264 7.54952 1.44038
thorax -14.0619 3.43976 -1.2735
lowerneck -2.84582 9.14884 1.43272
upperneck 7.98365 11.9822 1.72022
head 3.06854 6.032 0.773829
lclavicle 8.31955e-15 8.88306e-15 1.0795e-31
lhumerus 6.08924 14.0734 82.8599
lradius 90.4663 0 0
lwrist -17.7658 0 0
lhand -38.4915 28.6964 0.0159701
lfingers 7.12502 0 0
lthumb -11.5129 58.346 0.0168077
rclavicle 8.31955e-15 8.88306e-15 1.0795e-31
rhumerus -54.2942 50.8413 -108.118
rradius 112.544 0 0
rwrist -81.3123 0 0
rhand 6.47598 -25.5752 0.0469696
rfingers 7.12502 0 0
rthumb 31.7703 -52.7518 0.0651125
2959
root -5.7343 13.4082 -29.1234 161.448 -68.4295 -158.255
lfemur -67.6595 42.318 -6.8054
ltibia 76.398 0 0
lfoot -7.77511 -2.31256 0.0191943
ltoes -38.7394 0 0
rfemur -34.2637 -17.2791 23.0977
rtibia 90.0926 0 0
rfoot -40.1829 -30.1361 0.00985761
rtoes -13.7169 0 0
lowerback 16.2293 5.24087 1.37054
upperback -4.35937 7.53514 1.43565
thorax -14.0447 3.43353 -1.27285
lowerneck -2.83211 9.09017 1.39111
upperneck 7.92887 11.9056 1.73002
head 3.04885 5.99375 0.782843
lclavicle 8.01751e-15 8.67254e-15 1.20538e-31
lhumerus 6.14251 13.995 82.8533
lradius 90.4186 0 0
lwrist -17.6693 0 0
lhand -38.426 28.7045 0.0177937
lfingers 7.12502 0 0
lthumb -11.4496 58.3561 0.0187236
rclavicle 8.01751e-15 8.67254e-15 1.20538e-31
rhumerus -53.7497 50.789 -107.714
rradius 112.498 0 0
rwrist -81.197 0 0
rhand 6.36071 -25.6035 0.0522765
rfingers 7.12502 0 0
rthumb 31.6598 -52.7935 0.0724622
2960
root -5.68054 13.4564 -29.19 161.303 -68.5963 -158.085
lfemur -67.6391 42.1552 -6.83482
ltibia 76.2121 0 0
lfoot -7.76569 -2.23884 0.0208262
ltoes -38.7068 0 0
rfemur -34.276 -17.203 23.1487
rtibia 90.0104 0 0
rfoot -40.1251 -30.1309 0.0107146
rtoes -13.7054 0 0
lowerback 16.2269 5.23304 1.36854
upperback -4.34818 7.52315 1.43168
thorax -14.0302 3.42834 -1.27229
lowerneck -2.82019 9.04007 1.35591
upperneck 7.88272 11.8402 1.7387
head 3.03221 5.96108 0.790587
lclavicle 7.80812e-15 8.49904e-15 1.27508e-31
lhumerus 6.18773 13.927 82.8484
lradius 90.3786 0 0
lwrist -17.5874 0 0
lhand -38.371 28.7131 0.0193133
lfingers 7.12502 0 0
lthumb -11.3966 58.3665 0.0203224
rclavicle 7.80812e-15 8.49904e-15 1.27508e-31
rhumerus -53.2863 50.7426 -107.37
rradius 112.459 0 0
rwrist -81.0994 0 0
rhand 6.26281 -25.6278 0.0567546
rfingers 7.12502 0 0
rthumb 31.5659 -52.8292 0.0786652
2961
root -5.62679 13.5045 -29.2565 161.173 -68.7411 -157.934
lfemur -67.6205 42.0146 -6.86006
ltibia 76.0503 0 0
lfoot -7.75655 -2.1766 0.0222089
ltoes -38.6737 0 0
rfemur -34.2853 -17.1375 23.193
rtibia 89.938 0 0
rfoot -40.0752 -30.1254 0.0114468
rtoes -13.6947 0 0
lowerback 16.2248 5.22647 1.36676
upperback -4.33862 7.51306 1.42831
thorax -14.0178 3.42398 -1.2718
lowerneck -2.80959 8.99652 1.3257
upperneck 7.84334 11.7832 1.74661
head 3.01796 5.93266 0.79737
lclavicle 7.68366e-15 8.35559e-15 1.28469e-31
lhumerus 6.22674 13.8666 82.8451
lradius 90.3447 0 0
lwrist -17.5167 0 0
lhand -38.3244 28.7227 0.0205913
lfingers 7.12502 0 0
lthumb -11.3515 58.3774 0.0216705
rclavicle 7.68366e-15 8.35559e-15 1.28469e-31
rhumerus -52.8854 50.701 -107.073
rradius 112.425 0 0
rwrist -81.0155 0 0
rhand 6.17831 -25.6491 0.0606052
rfingers 7.12502 0 0
rthumb 31.4849 -52.8604 0.0840009
2962
root -5.57304 13.5527 -29.3231 161.053 -68.8704 -157.797
lfemur -67.6029 41.8896 -6.88234
ltibia 75.9052 0 0
lfoot -7.7473 -2.12286 0.0234104
ltoes -38.6388 0 0
rfemur -34.2919 -17.0796 23.2326
rtibia 89.872 0 0
rfoot -40.0308 -30.1196 0.0120893
rtoes -13.6842 0 0
lowerback 16.2228 5.22085 1.36513
upperback -4.33023 7.5044 1.42537
thorax -14.0068 3.42025 -1.27135
lowerneck -2.79984 8.95746 1.29904
upperneck 7.80885 11.732 1.75408
head 3.00541 5.90715 0.803508
lclavicle 7.63644e-15 8.23525e-15 1.23252e-31
lhumerus 6.26136 13.8111 82.8432
lradius 90.3153 0 0
lwrist -17.4539 0 0
lhand -38.2838 28.7335 0.0216893
lfingers 7.12502 0 0
lthumb -11.3123 58.3893 0.0228333
rclavicle 7.63644e-15 8.23525e-15 1.23252e-31
rhumerus -52.5273 50.6628 -106.807
rradius 112.396 0 0
rwrist -80.9413 0 0
rhand 6.10324 -25.6684 0.0640207
rfingers 7.12502 0 0
rthumb 31.4129 -52.8884 0.0887367
